<svg xmlns="http://www.w3.org/2000/svg" width="60" height="60" viewBox="0 0 60 60">
    <g fill="none" fill-rule="evenodd">
        <path fill="#F4F8FE" d="M1 0H61V60H1z" transform="translate(-1)"/>
        <g>
            <path fill="#275F9E" d="M0.673 16.2H60.673V39.2H0.673z" transform="translate(-1) translate(0 21) matrix(1 0 0 -1 0 55.4)"/>
            <path fill="#5CB1FA" d="M0.673 13.5H60.673V16.2H0.673z" transform="translate(-1) translate(0 21)"/>
            <path stroke="#1460A1" stroke-linecap="round" stroke-linejoin="round" stroke-width="2.52" d="M16.673 17.1V3.789c0-2.093 1.612-3.789 3.6-3.789s3.6 1.696 3.6 3.789M28.373 17.1V3.789c0-2.093 1.612-3.789 3.6-3.789s3.6 1.696 3.6 3.789M17.123 7.65L27.923 7.65M17.123 12.6L27.923 12.6" transform="translate(-1) translate(0 21)"/>
        </g>
        <g transform="translate(-1) rotate(40 18.136 55.46)">
            <ellipse cx="8.165" cy="6.494" fill="#27868B" rx="3.265" ry="6.403"/>
            <path fill="#275F9E" d="M2.644 11.62c.337 0 2.566.228 2.862 0 .97-.748-.25-2.954-.25-5.122 0-1.915.794-4.068 0-4.946-.378-.42-2.146-.176-2.612-.176-1.443 0-2.612 2.293-2.612 5.122 0 2.829 1.17 5.122 2.612 5.122z"/>
            <path fill="#275F9E" d="M5.054 12.897c.422 0 3.207.285 3.577 0 1.213-.935-.311-3.693-.311-6.403 0-2.393.992-5.084 0-6.183-.474-.524-2.683-.22-3.266-.22-1.803 0-3.265 2.867-3.265 6.403 0 3.536 1.462 6.403 3.265 6.403z"/>
            <path fill="#5499E7" d="M5.054 12.897c.422 0 3.207.285 3.577 0 1.213-.935-.311-3.693-.311-6.403 0-2.393.992-5.084 0-6.183-.474-.524-2.683-.22-3.266-.22-1.803 0-3.265 2.867-3.265 6.403 0 3.536 1.462 6.403 3.265 6.403z"/>
            <ellipse cx="8.165" cy="6.494" fill="#6CB0F7" rx="3.265" ry="6.403"/>
            <path fill="#FFD88A" d="M9.642 5.288h13.375v2.799H9.642c-.773 0-1.4-.627-1.4-1.4 0-.773.627-1.4 1.4-1.4z"/>
            <g transform="translate(17.263)">
                <path fill="#5499E7" d="M3.344 12.897c.421 0 3.207.285 3.577 0 1.212-.935-.312-3.693-.312-6.403 0-2.393.992-5.084 0-6.183-.474-.524-2.683-.22-3.265-.22C1.54.092.078 2.959.078 6.495c0 3.536 1.462 6.403 3.266 6.403z"/>
                <ellipse cx="6.454" cy="6.494" fill="#6CB0F7" rx="3.265" ry="6.403"/>
                <ellipse cx="8.009" cy="6.494" fill="#275F9E" rx="2.612" ry="5.122"/>
            </g>
        </g>
        <path stroke="#5CB1FA" stroke-linecap="round" stroke-linejoin="round" stroke-width="2.52" d="M12 43L13.617 43M20.75 43L31.25 43M35.573 48L46.273 48M40 41L42.887 41" transform="translate(-1)"/>
    </g>
</svg>
