<svg xmlns="http://www.w3.org/2000/svg" xmlns:xlink="http://www.w3.org/1999/xlink" width="60" height="60" viewBox="0 0 60 60">
    <defs>
        <path id="prefix__a" d="M0.34 0.474H61.324000000000005V61.458H0.34z"/>
    </defs>
    <g fill="none" fill-rule="evenodd">
        <g transform="translate(-772 -794) translate(771 793)">
            <mask id="prefix__b" fill="#fff">
                <use xlink:href="#prefix__a"/>
            </mask>
            <use fill="#A4C352" xlink:href="#prefix__a"/>
            <g mask="url(#prefix__b)">
                <g transform="translate(3.05 3.05)">
                    <g>
                        <g>
                            <path fill="#FDD0CC" d="M23.405 44.079c-1.868 1.649-3.91 2.5-6.125 2.553-3.322.079-9.967.237-10.917 5.086-.95 4.848-5.614 26.555-4.224 31.485 1.39 4.93 4.018 7.951 28.925 16.046l2.35-5.776c-5.29-1.356-9.517-3.326-12.682-5.91C15.986 83.687 9.047 81.1 9.15 78.176c.102-2.925 4.416-9.023 4.715-17.605.866 8.753.254 15.11-1.837 19.072-2.214 4.195-5.88 12.408-6.224 21.653-.135 3.635-.671 7.353.977 11.164.1.23.62 1.359.726 1.588 22.068.796 34.96-.308 38.674-3.312.31-.25.045-.137.344-.403.253-.225.217-1.055.049-1.396-4.915-9.96-5.834-19.354-2.757-28.184 4.634-13.294 9.21-32.672 2.708-33.475-6.501-.803-13.11.803-15.127-2.301-1.555-2.394-4.219-2.694-7.992-.898z" transform="translate(.34 .493) translate(.09 .333)"/>
                            <g>
                                <path fill="#FDD0CC" d="M15.9 39.44c.112 2.898 1.052 5.656 2.82 8.275 2.65 3.929.402 10.9-6.25 6.186-4.435-3.143-6.38-5.828-5.835-8.055 1.34-1.811 2.094-4.5 2.265-8.066.17-3.567 2.504-3.013 7 1.66z" transform="translate(.34 .493) translate(.09 .333) translate(14.108)"/>
                                <g>
                                    <path fill="#FFDAD9" d="M1.605 22.923c.577 9.82 3.35 15.539 8.318 17.156 7.452 2.426 12.65-8.145 11.437-18.716-1.213-10.57-11.437-17.85-18.542-4.852l-1.213 6.412z" transform="translate(.34 .493) translate(.09 .333) translate(14.108) rotate(2 -21.767 50.36)"/>
                                    <path fill="#4D2F7B" d="M8.896 10.207c-3.418 8.008-2.548 12.32 2.61 12.94 5.158.619 8.202 3.345 9.132 8.179 1.775-.353 3.178-2.025 4.21-5.017 1.547-4.487-.015-1.248 1.687-12.388C28.237 2.78 17.97-1.476 9.615 1.928c-5.57 2.27-5.81 5.03-.72 8.28z" transform="translate(.34 .493) translate(.09 .333) translate(14.108) rotate(2 -21.767 50.36)"/>
                                    <path fill="#4D2F7B" d="M3.159 32.149c-.077-3.684 2.275-7.83 7.056-12.438.534-1.07-.474-6.71-1.184-6.657C7.052 13.2.751 20.48.373 22.45c-.343 1.783.586 5.016 2.786 9.699z" transform="translate(.34 .493) translate(.09 .333) translate(14.108) rotate(2 -21.767 50.36)"/>
                                </g>
                            </g>
                        </g>
                        <path fill="#FFF" d="M23.811 16.42c-1.666 4.371-3.384 7.188-5.153 8.448-1.77 1.261-1.954 4.242-.553 8.944-3.073-.576-5.27-2.816-6.59-6.719-3.287-9.324-.054-15.507 9.7-18.547l2.596 7.873z" transform="translate(.34 .493)"/>
                        <path fill="#FFF" d="M19.462 11.347c.85 4.94 5.52 6.027 9.632 7.144 4.111 1.117 9.1 5.507 7.65 11.888-.254 1.148-.677 2.071-1.27 2.771 2.149.77 3.693.77 4.634 0 1.412-1.153 2.42-5.743 2.01-8.269-.412-2.526 4.274-8.474-.786-17.376-5.06-8.9-13.865-6.57-16.849-4.973-2.983 1.597-5.87 3.874-5.02 8.815z" transform="translate(.34 .493)"/>
                    </g>
                    <circle cx="22.701" cy="30.966" r="3.049" fill="#FFEEA2" stroke="#C5E380"/>
                    <circle cx="30.832" cy="30.966" r="3.049" fill="#FFEEA2" stroke="#C5E380"/>
                    <path stroke="#DEDEDE" stroke-linecap="round" stroke-linejoin="round" d="M37.714 32.803c2.766-1.893 3.52-5.189 2.266-9.886-1.883-7.046-9.293-11.705-13.213-11.705M23.387 16.523c-2.342-2.954-2.342-6.015 0-9.185M17.382 32.803c-4.154-5.366-4.456-9.93-.907-13.691M14.022 25.957c-1.764-4.742-.644-8.84 3.36-12.294M39.29 20.616c1.65-6.757-.881-11.935-7.593-15.534"/>
                </g>
            </g>
        </g>
        <path d="M771 793H831V853H771z" transform="translate(-772 -794)"/>
    </g>
</svg>
